{"asset":{"generator":"3D Builder","version":"2.0"},"scene":0,"scenes":[{"nodes":[0]}],"nodes":[{"mesh":0,"matrix":[1,0,0,0,0,-1.1920928955078125E-7,-0.99999988079071045,0,0,0.99999988079071045,-1.1920928955078125E-7,0,0,0,0,1]}],"meshes":[{"primitives":[{"attributes":{"POSITION":0},"mode":4,"indices":4,"material":0},{"attributes":{"POSITION":1},"mode":4,"indices":5,"material":0},{"attributes":{"POSITION":2},"mode":4,"indices":6,"material":0},{"attributes":{"POSITION":3},"mode":4,"indices":7,"material":0}]}],"materials":[{"name":"BaseColor","pbrMetallicRoughness":{"baseColorFactor":[0.50288659334182739,0.50288659334182739,0.50288659334182739,1],"metallicFactor":0,"roughnessFactor":1},"alphaMode":"OPAQUE"}],"accessors":[{"bufferView":0,"byteOffset":0,"count":22,"componentType":5126,"type":"VEC3","min":[0,-0.00050000124610960484,-0.00011100438132416457],"max":[0.00099199998658150434,0.039483994245529175,0.001872995519079268]},{"bufferView":0,"byteOffset":264,"count":29,"componentType":5126,"type":"VEC3","min":[0,-0.00050000124610960484,-0.00011100438132416457],"max":[0.03999999538064003,0.0004919986822642386,0.001872995519079268]},{"bufferView":0,"byteOffset":612,"count":29,"componentType":5126,"type":"VEC3","min":[0.03899199515581131,-0.00050000124610960484,-0.00011100438132416457],"max":[0.03999999538064003,0.039483994245529175,0.001872995519079268]},{"bufferView":0,"byteOffset":960,"count":24,"componentType":5126,"type":"VEC3","min":[0,0.038491994142532349,-0.00011100438132416457],"max":[0.03999999538064003,0.039483994245529175,0.001872995519079268]},{"bufferView":1,"byteOffset":0,"count":66,"componentType":5125,"type":"SCALAR"},{"bufferView":1,"byteOffset":264,"count":90,"componentType":5125,"type":"SCALAR"},{"bufferView":1,"byteOffset":624,"count":87,"componentType":5125,"type":"SCALAR"},{"bufferView":1,"byteOffset":972,"count":75,"componentType":5125,"type":"SCALAR"}],"bufferViews":[{"buffer":0,"byteOffset":0,"byteLength":1248,"byteStride":12,"target":34962},{"buffer":0,"byteOffset":1248,"byteLength":1272,"target":34963}],"buffers":[{"byteLength":2520,"uri":"level1_border.bin"}]}